<svg xmlns="http://www.w3.org/2000/svg" xmlns:xlink="http://www.w3.org/1999/xlink" width="2500" height="335" viewBox="0 0 2500 335">
    <defs>
        <path id="htozkb7wja" d="M0 0H2500V335H0z"/>
        <path id="yo8q9rssxc" d="M0.001 0.516L2395.206 0.516 2395.206 4333.968 0.001 4333.968z"/>
        <path id="6v0yfltqfe" d="M0 4336.163L2399.275 4336.163 2399.275 2.71 0 2.71z"/>
        <filter id="k75wuaettg" width="155.6%" height="156%" x="-27.8%" y="-28%" filterUnits="objectBoundingBox">
            <feOffset dy="1" in="SourceAlpha" result="shadowOffsetOuter1"/>
            <feGaussianBlur in="shadowOffsetOuter1" result="shadowBlurOuter1" stdDeviation="8.5"/>
            <feColorMatrix in="shadowBlurOuter1" result="shadowMatrixOuter1" values="0 0 0 0 1 0 0 0 0 1 0 0 0 0 1 0 0 0 0.2 0"/>
            <feMerge>
                <feMergeNode in="shadowMatrixOuter1"/>
                <feMergeNode in="SourceGraphic"/>
            </feMerge>
        </filter>
    </defs>
    <g fill="none" fill-rule="evenodd">
        <mask id="xh0mv5tiab" fill="#fff">
            <use xlink:href="#htozkb7wja"/>
        </mask>
        <use fill="#F68B1E" xlink:href="#htozkb7wja"/>
        <g mask="url(#xh0mv5tiab)" opacity=".103">
            <g transform="translate(-762.544 -1143.993)">
                <path fill="#CC0101" d="M2325.9 830.147l-.13 379.125c0 25.145 17.48 46.523 41.153 50.32l28.71 4.604 2.021-478.478c-31.568-18.318-71.754 5.023-71.754 44.43"/>
                <g transform="translate(0 2.194)">
                    <mask id="hd4v209gjd" fill="#fff">
                        <use xlink:href="#yo8q9rssxc"/>
                    </mask>
                    <path fill="#CC0101" d="M1110.166 2313.37l21.652-1185.643 479.474 144.447v726.536l-300.658 389.734-200.468-75.074zm833.973 757.224c-.823 5.543-1.76 11.072-2.757 16.542-22.662 122.463-92.886 235.284-189.93 307.327-90.563-9.108-181.414-4.561-269.508 14.723-70.124 15.33-135.671 38.83-197.552 67.973-47.736-38.598-90.173-86.434-126.144-141.46-65.577-100.305-109.804-224.11-125.148-358.785-8.026-70.369-8.935-143.928-2.7-222.308 7.968-100.522 27.816-209.07 60.063-329.282l612.82 229.496c166.273 62.257 267.604 237.204 240.856 415.774zM791.335 3849.557c-38.136 35.87-75.796 71.192-113.225 104.665L568.118 3832.12l-151.736-168.437 591.76-553.64c23.384 92.036 59.976 176.926 107.35 250.47 34.615 53.697 74.916 101.33 120.082 141.141-171.425 91.689-313.88 225.411-444.24 347.903zM91.17 3302.717c59.962-42.51 117.989-89.35 168.221-146.944 169.549-194.261 213.849-454.156 250.729-749.04l23.73-189.844 510.581 191.2c-25.824 95.226-50.68 208.35-61.275 329.066-6.986 79.722-7.852 162.62 1.631 245.821 2.714 23.803 6.525 47.172 10.898 70.297l-612.763 573.284-171.367-190.22-120.385-133.62zm43.304-551.835c-20.006-39.06-29.1-85.424-36.072-125.812-19.573-113.686-29.98-229.539-31.063-345.217l359.277-68.637-22.62 180.894c-21.94 175.467-46.507 337.193-99.656 475.52-70.397-6.352-136.32-51.272-169.866-116.748zm948.945-1637.72l-21.58 1182.107-513.727-192.384L686.799 993.687l396.62 119.475zm982.693 296.01l-399.853 518.289v-638.73l399.853 120.441zm39.897-970.885v865.975L700.888 880.996l81.57-652.285 24.279-194.217C794.583 16.292 773.624.514 737.032.514L702.98.963l-.116.88-.202 1.762-25.463 203.6-81.93 655.2-580.415-36.837-.491 112.576 566.933 35.985-140.059 1120.038-383.989 73.357-46.985-257.456-1.125 265.221.245 1.372-.245.057-.491 114.337 10.104-1.92c1.573 115.621 12.212 231.401 31.785 345.045 7.621 44.242 17.711 95.254 41.095 140.91 38.57 75.277 111.998 128.44 192.154 141.358-27.239 59.716-60.727 114.61-103.309 163.4-50.391 57.753-110.785 103.857-175.799 148.257l-.563 133.564c15.243-10.032 30.5-20.165 45.758-30.457l121.482 134.833 360.706 400.387 108.649 120.587c-105.661 90.635-210.37 162.057-320.766 181.385-26.184 4.576-57.507 7.03-90.938 9.628-65.562 5.124-139.857 10.941-219.478 35.22-3.017.91-5.976 1.992-8.964 2.945l-.057-.101L0 4333.968c12.01-4.692 24.135-9.022 36.448-12.775 68.896-21.002 137.273-26.358 197.84-31.092 35.668-2.772 69.344-5.413 100.35-10.826 193.048-33.806 354.383-185.427 525.202-345.983 178.037-167.311 379.832-356.924 641.012-414.07 277.187-60.64 586.16 43.823 806.374 272.597 27.844 28.927 53.524 58.864 77.326 89.494l.722-169.549c-140.882-146.294-314.949-246.701-496.666-292.892 79.68-84.587 136.292-193.871 157.843-310.358 1.255-6.813 2.396-13.626 3.435-20.483 3.724-25 5.543-49.915 5.543-74.627 0-12.976-.52-25.88-1.501-38.699l335.113-153.945.52-122.925-357.502 164.223c-14.896-47.288-36.591-91.978-64.248-132.524l422.905-305.263.26-62.199-453.78 327.55c-52.11-61.852-119.26-111.204-197.957-140.68l-319.971-119.821 762.507-988.395 212.954 33.82.476-113.585-179.263-28.48V19.092c-29.331-10.653-60.799-16.816-93.81-16.975l-16.124-.072v436.243z" mask="url(#hd4v209gjd)"/>
                </g>
                <mask id="4mceu1wxqf" fill="#fff">
                    <use xlink:href="#6v0yfltqfe"/>
                </mask>
                <path fill="#CC0101" d="M768.44 1946.574L988.308 1946.574 988.308 1195.325 768.44 1195.325zM1208.177 1261.374L1208.177 1644.555 1208.177 1708.37 1538.007 1708.37 1538.007 1366.963z" mask="url(#4mceu1wxqf)"/>
            </g>
        </g>
        <g mask="url(#xh0mv5tiab)">
            <g fill-rule="nonzero">
                <g>
                    <path fill="#FCAE5E" d="M59.069 218.302h-22.71c-2.708 0-1.437-134.418-1.437-138.775V45.722c0-2.094.518-4.1 1.438-5.58l15.768-25.355c.92-1.48 2.169-2.311 3.47-2.311 1.302 0 2.55.832 3.47 2.311l15.77 25.354c.92 1.482 1.437 3.487 1.437 5.581v84.514c0 4.358-2.198 7.89-4.907 7.89l-12.3 80.176z" transform="translate(1169.019 102.2) translate(446.226 35.14)"/>
                    <path fill="#F99C3D" d="M71.368 240.227c2.709 0 4.907-6.403 4.907-14.302V72.737v-23.21c0-4.326 0-6.752-1.557-9.695L59.805 16.487c-.921-2.682-2.905-4.011-4.207-4.011v227.75h15.77z" transform="translate(1169.019 102.2) translate(446.226 35.14)"/>
                    <path fill="#FFC890" d="M89.061 228.61c-3.066 0-17.454-5.126-17.454-11.452V94.491c0-3.039.586-5.95 1.627-8.1l17.85-36.8c1.041-2.148 2.455-3.356 3.927-3.356 1.474 0 2.886 1.208 3.93 3.356l17.849 36.8c1.041 2.15 1.627 5.061 1.627 8.1v122.667c0 6.326-2.488 11.453-5.555 11.453h-23.8z" transform="translate(1169.019 102.2) translate(446.226 35.14)"/>
                    <path fill="#FEB56A" d="M113.236 228.61c3.067 0 5.555-5.126 5.555-11.452V94.491c0-3.039-.586-5.95-1.628-8.1l-17.849-36.8c-1.043-2.148-2.455-3.356-3.929-3.356v182.376h17.851z" transform="translate(1169.019 102.2) translate(446.226 35.14)"/>
                    <path fill="#F99C3D" d="M122.722 263.835h21.024c2.71 0 4.907-3.195 4.907-7.137V118.079h5.607c2.71 0 4.907-3.196 4.907-7.137V57.43c0-2.703-1.05-5.175-2.713-6.385l-31.538-22.933c-1.521-1.106-3.328-.987-4.775.312-1.446 1.301-2.327 3.598-2.327 6.072v222.203c0 3.942 2.197 7.137 4.908 7.137z" transform="translate(1169.019 102.2) translate(446.226 35.14)"/>
                    <path fill="#FCAE5E" d="M219.002 318.289h-21.025c-2.71 0-4.907-4.286-4.907-9.574l-5.606-185.941c-2.71 0-4.908-4.288-4.908-9.574V41.418c0-3.626 1.05-6.941 2.714-8.564L216.808 2.09c1.52-1.484 3.328-1.324 4.774.419 1.447 1.745 2.327 4.826 2.327 8.145v298.06c0 5.288-2.196 9.574-4.907 9.574z" transform="translate(1169.019 102.2) translate(446.226 35.14)"/>
                    <path fill="#F99C3D" d="M222.66 1.428c-1.447-1.743-3.254-1.9-4.775-.419L204.311 14.25v302.957h15.769c2.71 0 4.907-4.286 4.907-9.574V9.573c0-3.318-.88-6.4-2.327-8.145z" transform="translate(1169.019 102.2) translate(446.226 35.14)"/>
                    <path fill="#FFC890" d="M181.277 236.466H160.25c-2.71 0-4.907-3.532-4.907-7.89-7.009-1.537-10.513-3.759-10.513-6.664V67.437c0-4.358 2.198-7.89 4.908-7.89h31.538c2.71 0 4.907 3.532 4.907 7.89v161.139c0 4.358-2.198 7.89-4.907 7.89zM36.446 252.446H15.42c-2.71 0-4.908-3.532-4.908-7.89C3.504 243.017 0 240.796 0 237.891V83.417c0-4.359 2.198-7.89 4.907-7.89h31.539c2.709 0 4.907 3.531 4.907 7.89v161.138c0 4.359-2.198 7.89-4.907 7.89zM240.82 236.466h-21.025c-2.71 0-4.907-3.532-4.907-7.89V92.79c0-4.358 2.196-7.89 4.907-7.89h31.537c2.71 0 4.907 3.532 4.907 7.89V143.5c0 4.358-2.197 7.89-4.907 7.89h-5.605v77.187c0 4.358-2.197 7.89-4.908 7.89z" transform="translate(1169.019 102.2) translate(446.226 35.14)"/>
                    <path fill="#FEB56A" d="M189.616 59.547h-19.858v176.92h19.858c3.411 0 6.18-3.533 6.18-7.891V67.437c0-4.358-2.769-7.89-6.18-7.89zM251.332 84.9h-15.769v151.566h5.256c2.711 0 15.42 9.767 15.42 5.408V92.791c0-4.358-2.197-7.89-4.907-7.89z" transform="translate(1169.019 102.2) translate(446.226 35.14)"/>
                </g>
                <g>
                    <path fill="#FCAE5E" d="M59.069 218.302h-22.71c-2.708 0-1.437-134.418-1.437-138.775V45.722c0-2.094.518-4.1 1.438-5.58l15.768-25.355c.92-1.48 2.169-2.311 3.47-2.311 1.302 0 2.55.832 3.47 2.311l15.77 25.354c.92 1.482 1.437 3.487 1.437 5.581v84.514c0 4.358-2.198 7.89-4.907 7.89l-12.3 80.176z" transform="translate(1169.019 102.2) translate(200.44 36.04)"/>
                    <path fill="#F99C3D" d="M71.368 240.227c2.709 0 4.907-6.403 4.907-14.302V72.737v-23.21c0-4.326 0-6.752-1.557-9.695L59.805 16.487c-.921-2.682-2.905-4.011-4.207-4.011v227.75h15.77z" transform="translate(1169.019 102.2) translate(200.44 36.04)"/>
                    <path fill="#FFC890" d="M89.061 228.61c-3.066 0-17.454-5.126-17.454-11.452V94.491c0-3.039.586-5.95 1.627-8.1l17.85-36.8c1.041-2.148 2.455-3.356 3.927-3.356 1.474 0 2.886 1.208 3.93 3.356l17.849 36.8c1.041 2.15 1.627 5.061 1.627 8.1v122.667c0 6.326-2.488 11.453-5.555 11.453h-23.8z" transform="translate(1169.019 102.2) translate(200.44 36.04)"/>
                    <path fill="#FEB56A" d="M113.236 228.61c3.067 0 5.555-5.126 5.555-11.452V94.491c0-3.039-.586-5.95-1.628-8.1l-17.849-36.8c-1.043-2.148-2.455-3.356-3.929-3.356v182.376h17.851z" transform="translate(1169.019 102.2) translate(200.44 36.04)"/>
                    <path fill="#F99C3D" d="M122.722 263.835h21.024c2.71 0 4.907-3.195 4.907-7.137V118.079h5.607c2.71 0 4.907-3.196 4.907-7.137V57.43c0-2.703-1.05-5.175-2.713-6.385l-31.538-22.933c-1.521-1.106-3.328-.987-4.775.312-1.446 1.301-2.327 3.598-2.327 6.072v222.203c0 3.942 2.197 7.137 4.908 7.137z" transform="translate(1169.019 102.2) translate(200.44 36.04)"/>
                    <path fill="#FCAE5E" d="M219.002 318.289h-21.025c-2.71 0-4.907-4.286-4.907-9.574l-5.606-185.941c-2.71 0-4.908-4.288-4.908-9.574V41.418c0-3.626 1.05-6.941 2.714-8.564L216.808 2.09c1.52-1.484 3.328-1.324 4.774.419 1.447 1.745 2.327 4.826 2.327 8.145v298.06c0 5.288-2.196 9.574-4.907 9.574z" transform="translate(1169.019 102.2) translate(200.44 36.04)"/>
                    <path fill="#F99C3D" d="M222.66 1.428c-1.447-1.743-3.254-1.9-4.775-.419L204.311 14.25v302.957h15.769c2.71 0 4.907-4.286 4.907-9.574V9.573c0-3.318-.88-6.4-2.327-8.145z" transform="translate(1169.019 102.2) translate(200.44 36.04)"/>
                    <path fill="#FFC890" d="M181.277 236.466H160.25c-2.71 0-4.907-3.532-4.907-7.89-7.009-1.537-10.513-3.759-10.513-6.664V67.437c0-4.358 2.198-7.89 4.908-7.89h31.538c2.71 0 4.907 3.532 4.907 7.89v161.139c0 4.358-2.198 7.89-4.907 7.89zM36.446 252.446H15.42c-2.71 0-4.908-3.532-4.908-7.89C3.504 243.017 0 240.796 0 237.891V83.417c0-4.359 2.198-7.89 4.907-7.89h31.539c2.709 0 4.907 3.531 4.907 7.89v161.138c0 4.359-2.198 7.89-4.907 7.89zM240.82 236.466h-21.025c-2.71 0-4.907-3.532-4.907-7.89V92.79c0-4.358 2.196-7.89 4.907-7.89h31.537c2.71 0 4.907 3.532 4.907 7.89V143.5c0 4.358-2.197 7.89-4.907 7.89h-5.605v77.187c0 4.358-2.197 7.89-4.908 7.89z" transform="translate(1169.019 102.2) translate(200.44 36.04)"/>
                    <path fill="#FEB56A" d="M189.616 59.547h-19.858v176.92h19.858c3.411 0 6.18-3.533 6.18-7.891V67.437c0-4.358-2.769-7.89-6.18-7.89zM251.332 84.9h-15.769v151.566h5.256c2.711 0 15.42 9.767 15.42 5.408V92.791c0-4.358-2.197-7.89-4.907-7.89z" transform="translate(1169.019 102.2) translate(200.44 36.04)"/>
                </g>
                <g>
                    <path fill="#FCAE5E" d="M25.069 218.302H2.359C-.348 218.302.923 83.884.923 79.527V45.722c0-2.094.518-4.1 1.438-5.58l15.768-25.355c.92-1.48 2.169-2.311 3.47-2.311 1.302 0 2.55.832 3.47 2.311l15.77 25.354c.92 1.482 1.437 3.487 1.437 5.581v84.514c0 4.358-2.198 7.89-4.907 7.89l-12.3 80.176z" transform="translate(1169.019 102.2) translate(0 18.02)"/>
                    <path fill="#F99C3D" d="M37.368 240.227c2.709 0 4.907-6.403 4.907-14.302V72.737v-23.21c0-4.326 0-6.752-1.557-9.695L25.805 16.487c-.921-2.682-2.905-4.011-4.207-4.011v227.75h15.77z" transform="translate(1169.019 102.2) translate(0 18.02)"/>
                    <path fill="#FFC890" d="M55.061 228.61c-3.066 0-17.454-5.126-17.454-11.452V94.491c0-3.039.586-5.95 1.627-8.1l17.85-36.8c1.041-2.148 2.455-3.356 3.927-3.356 1.474 0 2.886 1.208 3.93 3.356l17.849 36.8c1.041 2.15 1.627 5.061 1.627 8.1v122.667c0 6.326-2.488 11.453-5.555 11.453h-23.8z" transform="translate(1169.019 102.2) translate(0 18.02)"/>
                    <path fill="#FEB56A" d="M79.236 228.61c3.067 0 5.555-5.126 5.555-11.452V94.491c0-3.039-.586-5.95-1.628-8.1l-17.849-36.8c-1.043-2.148-2.455-3.356-3.929-3.356v182.376h17.851z" transform="translate(1169.019 102.2) translate(0 18.02)"/>
                    <path fill="#F99C3D" d="M88.722 263.835h21.024c2.71 0 4.907-3.195 4.907-7.137V118.079h5.607c2.71 0 4.907-3.196 4.907-7.137V57.43c0-2.703-1.05-5.175-2.713-6.385L90.916 28.111c-1.521-1.106-3.328-.987-4.775.312-1.446 1.301-2.327 3.598-2.327 6.072v222.203c0 3.942 2.197 7.137 4.908 7.137z" transform="translate(1169.019 102.2) translate(0 18.02)"/>
                    <path fill="#FCAE5E" d="M185.002 318.289h-21.025c-2.71 0-4.907-4.286-4.907-9.574l-5.606-185.941c-2.71 0-4.908-4.288-4.908-9.574V41.418c0-3.626 1.05-6.941 2.714-8.564L182.808 2.09c1.52-1.484 3.328-1.324 4.774.419 1.447 1.745 2.327 4.826 2.327 8.145v298.06c0 5.288-2.196 9.574-4.907 9.574z" transform="translate(1169.019 102.2) translate(0 18.02)"/>
                    <path fill="#F99C3D" d="M188.66 1.428c-1.447-1.743-3.254-1.9-4.775-.419L170.311 14.25v302.957h15.769c2.71 0 4.907-4.286 4.907-9.574V9.573c0-3.318-.88-6.4-2.327-8.145z" transform="translate(1169.019 102.2) translate(0 18.02)"/>
                    <path fill="#FFC890" d="M147.277 236.466H126.25c-2.71 0-4.907-3.532-4.907-7.89-7.009-1.537-10.513-3.759-10.513-6.664V67.437c0-4.358 2.198-7.89 4.908-7.89h31.538c2.71 0 4.907 3.532 4.907 7.89v161.139c0 4.358-2.198 7.89-4.907 7.89zM206.82 236.466h-21.025c-2.71 0-4.907-3.532-4.907-7.89V92.79c0-4.358 2.196-7.89 4.907-7.89h31.537c2.71 0 4.907 3.532 4.907 7.89V143.5c0 4.358-2.197 7.89-4.907 7.89h-5.605v77.187c0 4.358-2.197 7.89-4.908 7.89z" transform="translate(1169.019 102.2) translate(0 18.02)"/>
                    <path fill="#FEB56A" d="M155.616 59.547h-19.858v176.92h19.858c3.411 0 6.18-3.533 6.18-7.891V67.437c0-4.358-2.769-7.89-6.18-7.89zM217.332 84.9h-15.769v151.566h5.256c2.711 0 15.42 9.767 15.42 5.408V92.791c0-4.358-2.197-7.89-4.907-7.89z" transform="translate(1169.019 102.2) translate(0 18.02)"/>
                </g>
                <g>
                    <path fill="#FCAE5E" d="M59.069 287.702h-22.71c-2.708 0-1.437-179.741-1.437-185.566V56.932c0-2.8.518-5.482 1.438-7.463l15.768-33.902c.92-1.979 2.169-3.091 3.47-3.091 1.302 0 2.55 1.112 3.47 3.09l15.77 33.903c.92 1.981 1.437 4.663 1.437 7.463v113.01c0 5.827-2.198 10.55-4.907 10.55l-12.3 107.21z" transform="translate(1169.019 102.2) translate(698.525)"/>
                    <path fill="#F99C3D" d="M71.368 317.019c2.709 0 4.907-8.561 4.907-19.125V93.056 62.021c0-5.785 0-9.03-1.557-12.965L59.805 17.839c-.921-3.586-2.905-5.363-4.207-5.363v304.543h15.77z" transform="translate(1169.019 102.2) translate(698.525)"/>
                    <path fill="#FFC890" d="M89.061 282.301c-3.066 0-17.454-6.636-17.454-14.824v-158.78c0-3.933.586-7.701 1.627-10.485l17.85-47.634c1.041-2.779 2.455-4.343 3.927-4.343 1.474 0 2.886 1.564 3.93 4.343l17.849 47.634c1.041 2.784 1.627 6.552 1.627 10.485v158.78c0 8.188-2.488 14.824-5.555 14.824h-23.8z" transform="translate(1169.019 102.2) translate(698.525)"/>
                    <path fill="#FEB56A" d="M113.236 282.301c3.067 0 5.555-6.636 5.555-14.824v-158.78c0-3.933-.586-7.701-1.628-10.485L99.314 50.578c-1.043-2.779-2.455-4.343-3.929-4.343v236.066h17.851z" transform="translate(1169.019 102.2) translate(698.525)"/>
                    <path fill="#F99C3D" d="M122.722 263.835h21.024c2.71 0 4.907-3.195 4.907-7.137V118.079h5.607c2.71 0 4.907-3.196 4.907-7.137V57.43c0-2.703-1.05-5.175-2.713-6.385l-31.538-22.933c-1.521-1.106-3.328-.987-4.775.312-1.446 1.301-2.327 3.598-2.327 6.072v222.203c0 3.942 2.197 7.137 4.908 7.137z" transform="translate(1169.019 102.2) translate(698.525)"/>
                    <path fill="#FCAE5E" d="M219.002 318.289h-21.025c-2.71 0-4.907-4.286-4.907-9.574l-5.606-185.941c-2.71 0-4.908-4.288-4.908-9.574V41.418c0-3.626 1.05-6.941 2.714-8.564L216.808 2.09c1.52-1.484 3.328-1.324 4.774.419 1.447 1.745 2.327 4.826 2.327 8.145v298.06c0 5.288-2.196 9.574-4.907 9.574z" transform="translate(1169.019 102.2) translate(698.525)"/>
                    <path fill="#F99C3D" d="M222.66 1.428c-1.447-1.743-3.254-1.9-4.775-.419L204.311 14.25v302.957h15.769c2.71 0 4.907-4.286 4.907-9.574V9.573c0-3.318-.88-6.4-2.327-8.145z" transform="translate(1169.019 102.2) translate(698.525)"/>
                    <path fill="#FFC890" d="M181.277 236.466H160.25c-2.71 0-4.907-3.532-4.907-7.89-7.009-1.537-10.513-3.759-10.513-6.664V67.437c0-4.358 2.198-7.89 4.908-7.89h31.538c2.71 0 4.907 3.532 4.907 7.89v161.139c0 4.358-2.198 7.89-4.907 7.89zM36.446 252.446H15.42c-2.71 0-4.908-3.532-4.908-7.89C3.504 243.017 0 240.796 0 237.891V83.417c0-4.359 2.198-7.89 4.907-7.89h31.539c2.709 0 4.907 3.531 4.907 7.89v161.138c0 4.359-2.198 7.89-4.907 7.89zM240.82 236.466h-21.025c-2.71 0-4.907-3.532-4.907-7.89V92.79c0-4.358 2.196-7.89 4.907-7.89h31.537c2.71 0 4.907 3.532 4.907 7.89V143.5c0 4.358-2.197 7.89-4.907 7.89h-5.605v77.187c0 4.358-2.197 7.89-4.908 7.89z" transform="translate(1169.019 102.2) translate(698.525)"/>
                    <path fill="#FEB56A" d="M189.616 59.547h-19.858v176.92h19.858c3.411 0 6.18-3.533 6.18-7.891V67.437c0-4.358-2.769-7.89-6.18-7.89zM251.332 84.9h-15.769v151.566h5.256c2.711 0 15.42 9.767 15.42 5.408V92.791c0-4.358-2.197-7.89-4.907-7.89z" transform="translate(1169.019 102.2) translate(698.525)"/>
                </g>
            </g>
        </g>
        <g mask="url(#xh0mv5tiab)">
            <g fill-rule="nonzero">
                <g>
                    <path fill="#FCAE5E" d="M59.069 218.302h-22.71c-2.708 0-1.437-134.418-1.437-138.775V45.722c0-2.094.518-4.1 1.438-5.58l15.768-25.355c.92-1.48 2.169-2.311 3.47-2.311 1.302 0 2.55.832 3.47 2.311l15.77 25.354c.92 1.482 1.437 3.487 1.437 5.581v84.514c0 4.358-2.198 7.89-4.907 7.89l-12.3 80.176z" transform="translate(2115 102.2) translate(200.44 36.04)"/>
                    <path fill="#F99C3D" d="M71.368 240.227c2.709 0 4.907-6.403 4.907-14.302V72.737v-23.21c0-4.326 0-6.752-1.557-9.695L59.805 16.487c-.921-2.682-2.905-4.011-4.207-4.011v227.75h15.77z" transform="translate(2115 102.2) translate(200.44 36.04)"/>
                    <path fill="#FFC890" d="M89.061 228.61c-3.066 0-17.454-5.126-17.454-11.452V94.491c0-3.039.586-5.95 1.627-8.1l17.85-36.8c1.041-2.148 2.455-3.356 3.927-3.356 1.474 0 2.886 1.208 3.93 3.356l17.849 36.8c1.041 2.15 1.627 5.061 1.627 8.1v122.667c0 6.326-2.488 11.453-5.555 11.453h-23.8z" transform="translate(2115 102.2) translate(200.44 36.04)"/>
                    <path fill="#FEB56A" d="M113.236 228.61c3.067 0 5.555-5.126 5.555-11.452V94.491c0-3.039-.586-5.95-1.628-8.1l-17.849-36.8c-1.043-2.148-2.455-3.356-3.929-3.356v182.376h17.851z" transform="translate(2115 102.2) translate(200.44 36.04)"/>
                    <path fill="#F99C3D" d="M122.722 263.835h21.024c2.71 0 4.907-3.195 4.907-7.137V118.079h5.607c2.71 0 4.907-3.196 4.907-7.137V57.43c0-2.703-1.05-5.175-2.713-6.385l-31.538-22.933c-1.521-1.106-3.328-.987-4.775.312-1.446 1.301-2.327 3.598-2.327 6.072v222.203c0 3.942 2.197 7.137 4.908 7.137z" transform="translate(2115 102.2) translate(200.44 36.04)"/>
                    <path fill="#FCAE5E" d="M219.002 318.289h-21.025c-2.71 0-4.907-4.286-4.907-9.574l-5.606-185.941c-2.71 0-4.908-4.288-4.908-9.574V41.418c0-3.626 1.05-6.941 2.714-8.564L216.808 2.09c1.52-1.484 3.328-1.324 4.774.419 1.447 1.745 2.327 4.826 2.327 8.145v298.06c0 5.288-2.196 9.574-4.907 9.574z" transform="translate(2115 102.2) translate(200.44 36.04)"/>
                    <path fill="#FFC890" d="M181.277 236.466H160.25c-2.71 0-4.907-3.532-4.907-7.89-7.009-1.537-10.513-3.759-10.513-6.664V67.437c0-4.358 2.198-7.89 4.908-7.89h31.538c2.71 0 4.907 3.532 4.907 7.89v161.139c0 4.358-2.198 7.89-4.907 7.89zM36.446 252.446H15.42c-2.71 0-4.908-3.532-4.908-7.89C3.504 243.017 0 240.796 0 237.891V83.417c0-4.359 2.198-7.89 4.907-7.89h31.539c2.709 0 4.907 3.531 4.907 7.89v161.138c0 4.359-2.198 7.89-4.907 7.89z" transform="translate(2115 102.2) translate(200.44 36.04)"/>
                    <path fill="#FEB56A" d="M189.616 59.547h-19.858v176.92h19.858c3.411 0 6.18-3.533 6.18-7.891V67.437c0-4.358-2.769-7.89-6.18-7.89z" transform="translate(2115 102.2) translate(200.44 36.04)"/>
                </g>
                <g>
                    <path fill="#FCAE5E" d="M25.069 218.302H2.359C-.348 218.302.923 83.884.923 79.527V45.722c0-2.094.518-4.1 1.438-5.58l15.768-25.355c.92-1.48 2.169-2.311 3.47-2.311 1.302 0 2.55.832 3.47 2.311l15.77 25.354c.92 1.482 1.437 3.487 1.437 5.581v84.514c0 4.358-2.198 7.89-4.907 7.89l-12.3 80.176z" transform="translate(2115 102.2) translate(0 18.02)"/>
                    <path fill="#F99C3D" d="M37.368 240.227c2.709 0 4.907-6.403 4.907-14.302V72.737v-23.21c0-4.326 0-6.752-1.557-9.695L25.805 16.487c-.921-2.682-2.905-4.011-4.207-4.011v227.75h15.77z" transform="translate(2115 102.2) translate(0 18.02)"/>
                    <path fill="#FFC890" d="M55.061 228.61c-3.066 0-17.454-5.126-17.454-11.452V94.491c0-3.039.586-5.95 1.627-8.1l17.85-36.8c1.041-2.148 2.455-3.356 3.927-3.356 1.474 0 2.886 1.208 3.93 3.356l17.849 36.8c1.041 2.15 1.627 5.061 1.627 8.1v122.667c0 6.326-2.488 11.453-5.555 11.453h-23.8z" transform="translate(2115 102.2) translate(0 18.02)"/>
                    <path fill="#FEB56A" d="M79.236 228.61c3.067 0 5.555-5.126 5.555-11.452V94.491c0-3.039-.586-5.95-1.628-8.1l-17.849-36.8c-1.043-2.148-2.455-3.356-3.929-3.356v182.376h17.851z" transform="translate(2115 102.2) translate(0 18.02)"/>
                    <path fill="#F99C3D" d="M88.722 263.835h21.024c2.71 0 4.907-3.195 4.907-7.137V118.079h5.607c2.71 0 4.907-3.196 4.907-7.137V57.43c0-2.703-1.05-5.175-2.713-6.385L90.916 28.111c-1.521-1.106-3.328-.987-4.775.312-1.446 1.301-2.327 3.598-2.327 6.072v222.203c0 3.942 2.197 7.137 4.908 7.137z" transform="translate(2115 102.2) translate(0 18.02)"/>
                    <path fill="#FCAE5E" d="M185.002 318.289h-21.025c-2.71 0-4.907-4.286-4.907-9.574l-5.606-185.941c-2.71 0-4.908-4.288-4.908-9.574V41.418c0-3.626 1.05-6.941 2.714-8.564L182.808 2.09c1.52-1.484 3.328-1.324 4.774.419 1.447 1.745 2.327 4.826 2.327 8.145v298.06c0 5.288-2.196 9.574-4.907 9.574z" transform="translate(2115 102.2) translate(0 18.02)"/>
                    <path fill="#F99C3D" d="M188.66 1.428c-1.447-1.743-3.254-1.9-4.775-.419L170.311 14.25v302.957h15.769c2.71 0 4.907-4.286 4.907-9.574V9.573c0-3.318-.88-6.4-2.327-8.145z" transform="translate(2115 102.2) translate(0 18.02)"/>
                    <path fill="#FFC890" d="M147.277 236.466H126.25c-2.71 0-4.907-3.532-4.907-7.89-7.009-1.537-10.513-3.759-10.513-6.664V67.437c0-4.358 2.198-7.89 4.908-7.89h31.538c2.71 0 4.907 3.532 4.907 7.89v161.139c0 4.358-2.198 7.89-4.907 7.89zM206.82 236.466h-21.025c-2.71 0-4.907-3.532-4.907-7.89V92.79c0-4.358 2.196-7.89 4.907-7.89h31.537c2.71 0 4.907 3.532 4.907 7.89V143.5c0 4.358-2.197 7.89-4.907 7.89h-5.605v77.187c0 4.358-2.197 7.89-4.908 7.89z" transform="translate(2115 102.2) translate(0 18.02)"/>
                    <path fill="#FEB56A" d="M155.616 59.547h-19.858v176.92h19.858c3.411 0 6.18-3.533 6.18-7.891V67.437c0-4.358-2.769-7.89-6.18-7.89zM217.332 84.9h-15.769v151.566h5.256c2.711 0 15.42 9.767 15.42 5.408V92.791c0-4.358-2.197-7.89-4.907-7.89z" transform="translate(2115 102.2) translate(0 18.02)"/>
                </g>
            </g>
        </g>
        <g mask="url(#xh0mv5tiab)">
            <g fill-rule="nonzero">
                <g>
                    <path fill="#FCAE5E" d="M59.069 218.302h-22.71c-2.708 0-1.437-134.418-1.437-138.775V45.722c0-2.094.518-4.1 1.438-5.58l15.768-25.355c.92-1.48 2.169-2.311 3.47-2.311 1.302 0 2.55.832 3.47 2.311l15.77 25.354c.92 1.482 1.437 3.487 1.437 5.581v84.514c0 4.358-2.198 7.89-4.907 7.89l-12.3 80.176z" transform="translate(187.38 137.2) translate(480.226 35.14)"/>
                    <path fill="#F99C3D" d="M71.368 240.227c2.709 0 4.907-6.403 4.907-14.302V72.737v-23.21c0-4.326 0-6.752-1.557-9.695L59.805 16.487c-.921-2.682-2.905-4.011-4.207-4.011v227.75h15.77z" transform="translate(187.38 137.2) translate(480.226 35.14)"/>
                    <path fill="#FFC890" d="M89.061 228.61c-3.066 0-17.454-5.126-17.454-11.452V94.491c0-3.039.586-5.95 1.627-8.1l17.85-36.8c1.041-2.148 2.455-3.356 3.927-3.356 1.474 0 2.886 1.208 3.93 3.356l17.849 36.8c1.041 2.15 1.627 5.061 1.627 8.1v122.667c0 6.326-2.488 11.453-5.555 11.453h-23.8z" transform="translate(187.38 137.2) translate(480.226 35.14)"/>
                    <path fill="#FEB56A" d="M113.236 228.61c3.067 0 5.555-5.126 5.555-11.452V94.491c0-3.039-.586-5.95-1.628-8.1l-17.849-36.8c-1.043-2.148-2.455-3.356-3.929-3.356v182.376h17.851z" transform="translate(187.38 137.2) translate(480.226 35.14)"/>
                    <path fill="#F99C3D" d="M122.722 263.835h21.024c2.71 0 4.907-3.195 4.907-7.137V118.079h5.607c2.71 0 4.907-3.196 4.907-7.137V57.43c0-2.703-1.05-5.175-2.713-6.385l-31.538-22.933c-1.521-1.106-3.328-.987-4.775.312-1.446 1.301-2.327 3.598-2.327 6.072v222.203c0 3.942 2.197 7.137 4.908 7.137z" transform="translate(187.38 137.2) translate(480.226 35.14)"/>
                    <path fill="#FCAE5E" d="M219.002 318.289h-21.025c-2.71 0-4.907-4.286-4.907-9.574l-5.606-185.941c-2.71 0-4.908-4.288-4.908-9.574V41.418c0-3.626 1.05-6.941 2.714-8.564L216.808 2.09c1.52-1.484 3.328-1.324 4.774.419 1.447 1.745 2.327 4.826 2.327 8.145v298.06c0 5.288-2.196 9.574-4.907 9.574z" transform="translate(187.38 137.2) translate(480.226 35.14)"/>
                    <path fill="#F99C3D" d="M222.66 1.428c-1.447-1.743-3.254-1.9-4.775-.419L204.311 14.25v302.957h15.769c2.71 0 4.907-4.286 4.907-9.574V9.573c0-3.318-.88-6.4-2.327-8.145z" transform="translate(187.38 137.2) translate(480.226 35.14)"/>
                    <path fill="#FFC890" d="M181.277 236.466H160.25c-2.71 0-4.907-3.532-4.907-7.89-7.009-1.537-10.513-3.759-10.513-6.664V67.437c0-4.358 2.198-7.89 4.908-7.89h31.538c2.71 0 4.907 3.532 4.907 7.89v161.139c0 4.358-2.198 7.89-4.907 7.89zM36.446 252.446H15.42c-2.71 0-4.908-3.532-4.908-7.89C3.504 243.017 0 240.796 0 237.891V83.417c0-4.359 2.198-7.89 4.907-7.89h31.539c2.709 0 4.907 3.531 4.907 7.89v161.138c0 4.359-2.198 7.89-4.907 7.89zM240.82 236.466h-21.025c-2.71 0-4.907-3.532-4.907-7.89V92.79c0-4.358 2.196-7.89 4.907-7.89h31.537c2.71 0 4.907 3.532 4.907 7.89V143.5c0 4.358-2.197 7.89-4.907 7.89h-5.605v77.187c0 4.358-2.197 7.89-4.908 7.89z" transform="translate(187.38 137.2) translate(480.226 35.14)"/>
                    <path fill="#FEB56A" d="M189.616 59.547h-19.858v176.92h19.858c3.411 0 6.18-3.533 6.18-7.891V67.437c0-4.358-2.769-7.89-6.18-7.89zM251.332 84.9h-15.769v151.566h5.256c2.711 0 15.42 9.767 15.42 5.408V92.791c0-4.358-2.197-7.89-4.907-7.89z" transform="translate(187.38 137.2) translate(480.226 35.14)"/>
                </g>
                <g>
                    <path fill="#FCAE5E" d="M59.069 218.302h-22.71c-2.708 0-1.437-134.418-1.437-138.775V45.722c0-2.094.518-4.1 1.438-5.58l15.768-25.355c.92-1.48 2.169-2.311 3.47-2.311 1.302 0 2.55.832 3.47 2.311l15.77 25.354c.92 1.482 1.437 3.487 1.437 5.581v84.514c0 4.358-2.198 7.89-4.907 7.89l-12.3 80.176z" transform="translate(187.38 137.2) translate(234.44 36.04)"/>
                    <path fill="#F99C3D" d="M71.368 240.227c2.709 0 4.907-6.403 4.907-14.302V72.737v-23.21c0-4.326 0-6.752-1.557-9.695L59.805 16.487c-.921-2.682-2.905-4.011-4.207-4.011v227.75h15.77z" transform="translate(187.38 137.2) translate(234.44 36.04)"/>
                    <path fill="#FFC890" d="M89.061 228.61c-3.066 0-17.454-5.126-17.454-11.452V94.491c0-3.039.586-5.95 1.627-8.1l17.85-36.8c1.041-2.148 2.455-3.356 3.927-3.356 1.474 0 2.886 1.208 3.93 3.356l17.849 36.8c1.041 2.15 1.627 5.061 1.627 8.1v122.667c0 6.326-2.488 11.453-5.555 11.453h-23.8z" transform="translate(187.38 137.2) translate(234.44 36.04)"/>
                    <path fill="#FEB56A" d="M113.236 228.61c3.067 0 5.555-5.126 5.555-11.452V94.491c0-3.039-.586-5.95-1.628-8.1l-17.849-36.8c-1.043-2.148-2.455-3.356-3.929-3.356v182.376h17.851z" transform="translate(187.38 137.2) translate(234.44 36.04)"/>
                    <path fill="#F99C3D" d="M122.722 263.835h21.024c2.71 0 4.907-3.195 4.907-7.137V118.079h5.607c2.71 0 4.907-3.196 4.907-7.137V57.43c0-2.703-1.05-5.175-2.713-6.385l-31.538-22.933c-1.521-1.106-3.328-.987-4.775.312-1.446 1.301-2.327 3.598-2.327 6.072v222.203c0 3.942 2.197 7.137 4.908 7.137z" transform="translate(187.38 137.2) translate(234.44 36.04)"/>
                    <path fill="#FCAE5E" d="M219.002 318.289h-21.025c-2.71 0-4.907-4.286-4.907-9.574l-5.606-185.941c-2.71 0-4.908-4.288-4.908-9.574V41.418c0-3.626 1.05-6.941 2.714-8.564L216.808 2.09c1.52-1.484 3.328-1.324 4.774.419 1.447 1.745 2.327 4.826 2.327 8.145v298.06c0 5.288-2.196 9.574-4.907 9.574z" transform="translate(187.38 137.2) translate(234.44 36.04)"/>
                    <path fill="#F99C3D" d="M222.66 1.428c-1.447-1.743-3.254-1.9-4.775-.419L204.311 14.25v302.957h15.769c2.71 0 4.907-4.286 4.907-9.574V9.573c0-3.318-.88-6.4-2.327-8.145z" transform="translate(187.38 137.2) translate(234.44 36.04)"/>
                    <path fill="#FFC890" d="M181.277 236.466H160.25c-2.71 0-4.907-3.532-4.907-7.89-7.009-1.537-10.513-3.759-10.513-6.664V67.437c0-4.358 2.198-7.89 4.908-7.89h31.538c2.71 0 4.907 3.532 4.907 7.89v161.139c0 4.358-2.198 7.89-4.907 7.89zM36.446 252.446H15.42c-2.71 0-4.908-3.532-4.908-7.89C3.504 243.017 0 240.796 0 237.891V83.417c0-4.359 2.198-7.89 4.907-7.89h31.539c2.709 0 4.907 3.531 4.907 7.89v161.138c0 4.359-2.198 7.89-4.907 7.89zM240.82 236.466h-21.025c-2.71 0-4.907-3.532-4.907-7.89V92.79c0-4.358 2.196-7.89 4.907-7.89h31.537c2.71 0 4.907 3.532 4.907 7.89V143.5c0 4.358-2.197 7.89-4.907 7.89h-5.605v77.187c0 4.358-2.197 7.89-4.908 7.89z" transform="translate(187.38 137.2) translate(234.44 36.04)"/>
                    <path fill="#FEB56A" d="M189.616 59.547h-19.858v176.92h19.858c3.411 0 6.18-3.533 6.18-7.891V67.437c0-4.358-2.769-7.89-6.18-7.89zM251.332 84.9h-15.769v151.566h5.256c2.711 0 15.42 9.767 15.42 5.408V92.791c0-4.358-2.197-7.89-4.907-7.89z" transform="translate(187.38 137.2) translate(234.44 36.04)"/>
                </g>
                <g>
                    <path fill="#FCAE5E" d="M59.069 218.302h-22.71c-2.708 0-1.437-134.418-1.437-138.775V45.722c0-2.094.518-4.1 1.438-5.58l15.768-25.355c.92-1.48 2.169-2.311 3.47-2.311 1.302 0 2.55.832 3.47 2.311l15.77 25.354c.92 1.482 1.437 3.487 1.437 5.581v84.514c0 4.358-2.198 7.89-4.907 7.89l-12.3 80.176z" transform="translate(187.38 137.2) translate(0 18.02)"/>
                    <path fill="#F99C3D" d="M71.368 240.227c2.709 0 4.907-6.403 4.907-14.302V72.737v-23.21c0-4.326 0-6.752-1.557-9.695L59.805 16.487c-.921-2.682-2.905-4.011-4.207-4.011v227.75h15.77z" transform="translate(187.38 137.2) translate(0 18.02)"/>
                    <path fill="#FFC890" d="M89.061 228.61c-3.066 0-17.454-5.126-17.454-11.452V94.491c0-3.039.586-5.95 1.627-8.1l17.85-36.8c1.041-2.148 2.455-3.356 3.927-3.356 1.474 0 2.886 1.208 3.93 3.356l17.849 36.8c1.041 2.15 1.627 5.061 1.627 8.1v122.667c0 6.326-2.488 11.453-5.555 11.453h-23.8z" transform="translate(187.38 137.2) translate(0 18.02)"/>
                    <path fill="#FEB56A" d="M113.236 228.61c3.067 0 5.555-5.126 5.555-11.452V94.491c0-3.039-.586-5.95-1.628-8.1l-17.849-36.8c-1.043-2.148-2.455-3.356-3.929-3.356v182.376h17.851z" transform="translate(187.38 137.2) translate(0 18.02)"/>
                    <path fill="#F99C3D" d="M122.722 263.835h21.024c2.71 0 4.907-3.195 4.907-7.137V118.079h5.607c2.71 0 4.907-3.196 4.907-7.137V57.43c0-2.703-1.05-5.175-2.713-6.385l-31.538-22.933c-1.521-1.106-3.328-.987-4.775.312-1.446 1.301-2.327 3.598-2.327 6.072v222.203c0 3.942 2.197 7.137 4.908 7.137z" transform="translate(187.38 137.2) translate(0 18.02)"/>
                    <path fill="#FCAE5E" d="M219.002 318.289h-21.025c-2.71 0-4.907-4.286-4.907-9.574l-5.606-185.941c-2.71 0-4.908-4.288-4.908-9.574V41.418c0-3.626 1.05-6.941 2.714-8.564L216.808 2.09c1.52-1.484 3.328-1.324 4.774.419 1.447 1.745 2.327 4.826 2.327 8.145v298.06c0 5.288-2.196 9.574-4.907 9.574z" transform="translate(187.38 137.2) translate(0 18.02)"/>
                    <path fill="#F99C3D" d="M222.66 1.428c-1.447-1.743-3.254-1.9-4.775-.419L204.311 14.25v302.957h15.769c2.71 0 4.907-4.286 4.907-9.574V9.573c0-3.318-.88-6.4-2.327-8.145z" transform="translate(187.38 137.2) translate(0 18.02)"/>
                    <path fill="#FFC890" d="M181.277 236.466H160.25c-2.71 0-4.907-3.532-4.907-7.89-7.009-1.537-10.513-3.759-10.513-6.664V67.437c0-4.358 2.198-7.89 4.908-7.89h31.538c2.71 0 4.907 3.532 4.907 7.89v161.139c0 4.358-2.198 7.89-4.907 7.89zM36.446 252.446H15.42c-2.71 0-4.908-3.532-4.908-7.89C3.504 243.017 0 240.796 0 237.891V83.417c0-4.359 2.198-7.89 4.907-7.89h31.539c2.709 0 4.907 3.531 4.907 7.89v161.138c0 4.359-2.198 7.89-4.907 7.89zM240.82 236.466h-21.025c-2.71 0-4.907-3.532-4.907-7.89V92.79c0-4.358 2.196-7.89 4.907-7.89h31.537c2.71 0 4.907 3.532 4.907 7.89V143.5c0 4.358-2.197 7.89-4.907 7.89h-5.605v77.187c0 4.358-2.197 7.89-4.908 7.89z" transform="translate(187.38 137.2) translate(0 18.02)"/>
                    <path fill="#FEB56A" d="M189.616 59.547h-19.858v176.92h19.858c3.411 0 6.18-3.533 6.18-7.891V67.437c0-4.358-2.769-7.89-6.18-7.89zM251.332 84.9h-15.769v151.566h5.256c2.711 0 15.42 9.767 15.42 5.408V92.791c0-4.358-2.197-7.89-4.907-7.89z" transform="translate(187.38 137.2) translate(0 18.02)"/>
                </g>
                <g>
                    <path fill="#FCAE5E" d="M59.069 287.702h-22.71c-2.708 0-1.437-179.741-1.437-185.566V56.932c0-2.8.518-5.482 1.438-7.463l15.768-33.902c.92-1.979 2.169-3.091 3.47-3.091 1.302 0 2.55 1.112 3.47 3.09l15.77 33.903c.92 1.981 1.437 4.663 1.437 7.463v113.01c0 5.827-2.198 10.55-4.907 10.55l-12.3 107.21z" transform="translate(187.38 137.2) translate(732.525)"/>
                    <path fill="#F99C3D" d="M71.368 317.019c2.709 0 4.907-8.561 4.907-19.125V93.056 62.021c0-5.785 0-9.03-1.557-12.965L59.805 17.839c-.921-3.586-2.905-5.363-4.207-5.363v304.543h15.77z" transform="translate(187.38 137.2) translate(732.525)"/>
                    <path fill="#FFC890" d="M89.061 282.301c-3.066 0-17.454-6.636-17.454-14.824v-158.78c0-3.933.586-7.701 1.627-10.485l17.85-47.634c1.041-2.779 2.455-4.343 3.927-4.343 1.474 0 2.886 1.564 3.93 4.343l17.849 47.634c1.041 2.784 1.627 6.552 1.627 10.485v158.78c0 8.188-2.488 14.824-5.555 14.824h-23.8z" transform="translate(187.38 137.2) translate(732.525)"/>
                    <path fill="#FEB56A" d="M113.236 282.301c3.067 0 5.555-6.636 5.555-14.824v-158.78c0-3.933-.586-7.701-1.628-10.485L99.314 50.578c-1.043-2.779-2.455-4.343-3.929-4.343v236.066h17.851z" transform="translate(187.38 137.2) translate(732.525)"/>
                    <path fill="#F99C3D" d="M122.722 263.835h21.024c2.71 0 4.907-3.195 4.907-7.137V118.079h5.607c2.71 0 4.907-3.196 4.907-7.137V57.43c0-2.703-1.05-5.175-2.713-6.385l-31.538-22.933c-1.521-1.106-3.328-.987-4.775.312-1.446 1.301-2.327 3.598-2.327 6.072v222.203c0 3.942 2.197 7.137 4.908 7.137z" transform="translate(187.38 137.2) translate(732.525)"/>
                    <path fill="#FCAE5E" d="M219.002 318.289h-21.025c-2.71 0-4.907-4.286-4.907-9.574l-5.606-185.941c-2.71 0-4.908-4.288-4.908-9.574V41.418c0-3.626 1.05-6.941 2.714-8.564L216.808 2.09c1.52-1.484 3.328-1.324 4.774.419 1.447 1.745 2.327 4.826 2.327 8.145v298.06c0 5.288-2.196 9.574-4.907 9.574z" transform="translate(187.38 137.2) translate(732.525)"/>
                    <path fill="#F99C3D" d="M222.66 1.428c-1.447-1.743-3.254-1.9-4.775-.419L204.311 14.25v302.957h15.769c2.71 0 4.907-4.286 4.907-9.574V9.573c0-3.318-.88-6.4-2.327-8.145z" transform="translate(187.38 137.2) translate(732.525)"/>
                    <path fill="#FFC890" d="M181.277 236.466H160.25c-2.71 0-4.907-3.532-4.907-7.89-7.009-1.537-10.513-3.759-10.513-6.664V67.437c0-4.358 2.198-7.89 4.908-7.89h31.538c2.71 0 4.907 3.532 4.907 7.89v161.139c0 4.358-2.198 7.89-4.907 7.89zM36.446 252.446H15.42c-2.71 0-4.908-3.532-4.908-7.89C3.504 243.017 0 240.796 0 237.891V83.417c0-4.359 2.198-7.89 4.907-7.89h31.539c2.709 0 4.907 3.531 4.907 7.89v161.138c0 4.359-2.198 7.89-4.907 7.89zM240.82 236.466h-21.025c-2.71 0-4.907-3.532-4.907-7.89V92.79c0-4.358 2.196-7.89 4.907-7.89h31.537c2.71 0 4.907 3.532 4.907 7.89V143.5c0 4.358-2.197 7.89-4.907 7.89h-5.605v77.187c0 4.358-2.197 7.89-4.908 7.89z" transform="translate(187.38 137.2) translate(732.525)"/>
                    <path fill="#FEB56A" d="M189.616 59.547h-19.858v176.92h19.858c3.411 0 6.18-3.533 6.18-7.891V67.437c0-4.358-2.769-7.89-6.18-7.89zM251.332 84.9h-15.769v151.566h5.256c2.711 0 15.42 9.767 15.42 5.408V92.791c0-4.358-2.197-7.89-4.907-7.89z" transform="translate(187.38 137.2) translate(732.525)"/>
                </g>
            </g>
        </g>
        <g mask="url(#xh0mv5tiab)">
            <g fill-rule="nonzero">
                <path fill="#FCAE5E" d="M59.069 287.702h-22.71c-2.708 0-1.437-179.741-1.437-185.566V56.932c0-2.8.518-5.482 1.438-7.463l15.768-33.902c.92-1.979 2.169-3.091 3.47-3.091 1.302 0 2.55 1.112 3.47 3.09l15.77 33.903c.92 1.981 1.437 4.663 1.437 7.463v113.01c0 5.827-2.198 10.55-4.907 10.55l-12.3 107.21z" transform="translate(-26.475 122.2)"/>
                <path fill="#F99C3D" d="M71.368 317.019c2.709 0 4.907-8.561 4.907-19.125V93.056 62.021c0-5.785 0-9.03-1.557-12.965L59.805 17.839c-.921-3.586-2.905-5.363-4.207-5.363v304.543h15.77z" transform="translate(-26.475 122.2)"/>
                <path fill="#FFC890" d="M89.061 282.301c-3.066 0-17.454-6.636-17.454-14.824v-158.78c0-3.933.586-7.701 1.627-10.485l17.85-47.634c1.041-2.779 2.455-4.343 3.927-4.343 1.474 0 2.886 1.564 3.93 4.343l17.849 47.634c1.041 2.784 1.627 6.552 1.627 10.485v158.78c0 8.188-2.488 14.824-5.555 14.824h-23.8z" transform="translate(-26.475 122.2)"/>
                <path fill="#FEB56A" d="M113.236 282.301c3.067 0 5.555-6.636 5.555-14.824v-158.78c0-3.933-.586-7.701-1.628-10.485L99.314 50.578c-1.043-2.779-2.455-4.343-3.929-4.343v236.066h17.851z" transform="translate(-26.475 122.2)"/>
                <path fill="#F99C3D" d="M122.722 263.835h21.024c2.71 0 4.907-3.195 4.907-7.137V118.079h5.607c2.71 0 4.907-3.196 4.907-7.137V57.43c0-2.703-1.05-5.175-2.713-6.385l-31.538-22.933c-1.521-1.106-3.328-.987-4.775.312-1.446 1.301-2.327 3.598-2.327 6.072v222.203c0 3.942 2.197 7.137 4.908 7.137z" transform="translate(-26.475 122.2)"/>
                <path fill="#FCAE5E" d="M219.002 318.289h-21.025c-2.71 0-4.907-4.286-4.907-9.574l-5.606-185.941c-2.71 0-4.908-4.288-4.908-9.574V41.418c0-3.626 1.05-6.941 2.714-8.564L216.808 2.09c1.52-1.484 3.328-1.324 4.774.419 1.447 1.745 2.327 4.826 2.327 8.145v298.06c0 5.288-2.196 9.574-4.907 9.574z" transform="translate(-26.475 122.2)"/>
                <path fill="#F99C3D" d="M222.66 1.428c-1.447-1.743-3.254-1.9-4.775-.419L204.311 14.25v302.957h15.769c2.71 0 4.907-4.286 4.907-9.574V9.573c0-3.318-.88-6.4-2.327-8.145z" transform="translate(-26.475 122.2)"/>
                <path fill="#FFC890" d="M181.277 236.466H160.25c-2.71 0-4.907-3.532-4.907-7.89-7.009-1.537-10.513-3.759-10.513-6.664V67.437c0-4.358 2.198-7.89 4.908-7.89h31.538c2.71 0 4.907 3.532 4.907 7.89v161.139c0 4.358-2.198 7.89-4.907 7.89zM36.446 252.446H15.42c-2.71 0-4.908-3.532-4.908-7.89C3.504 243.017 0 240.796 0 237.891V83.417c0-4.359 2.198-7.89 4.907-7.89h31.539c2.709 0 4.907 3.531 4.907 7.89v161.138c0 4.359-2.198 7.89-4.907 7.89zM240.82 236.466h-21.025c-2.71 0-4.907-3.532-4.907-7.89V92.79c0-4.358 2.196-7.89 4.907-7.89h31.537c2.71 0 4.907 3.532 4.907 7.89V143.5c0 4.358-2.197 7.89-4.907 7.89h-5.605v77.187c0 4.358-2.197 7.89-4.908 7.89z" transform="translate(-26.475 122.2)"/>
                <path fill="#FEB56A" d="M189.616 59.547h-19.858v176.92h19.858c3.411 0 6.18-3.533 6.18-7.891V67.437c0-4.358-2.769-7.89-6.18-7.89zM251.332 84.9h-15.769v151.566h5.256c2.711 0 15.42 9.767 15.42 5.408V92.791c0-4.358-2.197-7.89-4.907-7.89z" transform="translate(-26.475 122.2)"/>
            </g>
        </g>
        <g filter="url(#k75wuaettg)" mask="url(#xh0mv5tiab)">
            <g>
                <g>
                    <path fill="#B28E70" d="M31.576 9.255c.59.6 1.166 1.249 1.249 4.163.083 2.912 1.997 13.483-5.577 13.734l.242 6.458-8.766-3.29s.616-6.332-.632-7.663c-1.248-1.333-3.024-3.496-1.942-4.855 0 0 .998-1.25 2.19.693 0 0 1.082-.55 1.777-3.635.888-3.94 8.338-8.767 11.46-5.605" transform="translate(1488.023 214.895) translate(29.295)"/>
                    <g>
                        <path fill="#F79C40" d="M22.19 3.827C20.045 1.662 17.259.35 14.246.062L13.17 16.918l1.076 8.988c2.424 0 4.619-1.434 5.592-3.654l.606-1.381 3.45-.932.167-.276c1.216-2.003 1.863-4.306 1.872-6.66.013-3.467-1.316-6.726-3.743-9.176z" transform="translate(1488.023 214.895) translate(29.295) matrix(-1 0 0 1 34.498 0)"/>
                        <path fill="#F68B1E" d="M13.05 0h-.07C9.696 0 6.566 1.23 4.16 3.47 1.75 5.71.295 8.746.062 12.018l-.05.68 8.128 1.966V19.8c0 3.367 2.739 6.106 6.106 6.106V.062C13.851.024 13.451.003 13.049 0z" transform="translate(1488.023 214.895) translate(29.295) matrix(-1 0 0 1 34.498 0)"/>
                        <path fill="#555" d="M14.246 16.918L13.17 19.8l1.076 2.88c1.589 0 2.881-1.292 2.881-2.88 0-1.59-1.292-2.882-2.881-2.882z" transform="translate(1488.023 214.895) translate(29.295) matrix(-1 0 0 1 34.498 0)"/>
                        <path fill="#555" d="M14.246 16.918c-1.589 0-2.881 1.293-2.881 2.882 0 1.588 1.292 2.88 2.88 2.88v-5.762z" transform="translate(1488.023 214.895) translate(29.295) matrix(-1 0 0 1 34.498 0)"/>
                        <path fill="#FFC426" d="M14.246 18.53c-.7 0-1.269.57-1.269 1.27 0 .7.57 1.269 1.269 1.269.7 0 1.269-.57 1.269-1.27 0-.7-.57-1.268-1.269-1.268z" transform="translate(1488.023 214.895) translate(29.295) matrix(-1 0 0 1 34.498 0)"/>
                    </g>
                    <path fill="#555" d="M37.867 94.385c-2.652-1.22-3.814-4.36-2.594-7.013l4.33-16.435-23.237-.174c-2.886-.444-4.864-3.145-4.418-6.032.444-2.885 3.144-4.865 6.032-4.418l28.978 1.242c3.48.537 5.757 4.256 4.293 7.435l-6.37 22.803c-1.225 2.658-4.368 3.81-7.014 2.592z" transform="translate(1488.023 214.895) translate(29.295)"/>
                    <path fill="#FFD051" d="M11.885 69.605V35.892c0-3.333 2.701-6.034 6.032-6.034h11.049c3.332 0 6.033 2.701 6.033 6.034v25.142l-23.114 8.571z" transform="translate(1488.023 214.895) translate(29.295)"/>
                    <g>
                        <g>
                            <path fill="#CDE3E6" d="M81.43 43.5l-6.26 4.82-16.623 12.744H38.785l-8.311-5.54 8.311-11.082h2.955c10.693 0 19.577-8.7 19.577-19.392 0-7.646 6.206-13.852 13.852-13.852l1.94.83C85.418 20.34 87.191 33.25 81.43 43.5z" transform="translate(1488.023 214.895) translate(29.295) translate(0 49.281) translate(0 .12)"/>
                            <path fill="#BEDBDE" d="M81.43 43.5l-6.26 4.82V11.199l1.938.83C85.42 20.34 87.192 33.25 81.43 43.5z" transform="translate(1488.023 214.895) translate(29.295) translate(0 49.281) translate(0 .12)"/>
                            <path fill="#555" d="M89.021 58.294c0 7.646-6.206 13.852-13.852 13.852S61.317 65.94 61.317 58.294s6.206-13.852 13.852-13.852 13.852 6.206 13.852 13.852z" transform="translate(1488.023 214.895) translate(29.295) translate(0 49.281) translate(0 .12)"/>
                            <path fill="#3F3F3F" d="M89.021 58.294c0 7.646-6.206 13.852-13.852 13.852V44.442c7.646 0 13.852 6.206 13.852 13.852zM50.236 5.657L64.088 5.657 64.088 11.198 50.236 11.198z" transform="translate(1488.023 214.895) translate(29.295) translate(0 49.281) translate(0 .12)"/>
                            <path fill="#555" d="M33.244 58.294c0 7.65-6.201 13.852-13.851 13.852-7.65 0-13.852-6.202-13.852-13.852s6.201-13.852 13.852-13.852c7.65 0 13.851 6.202 13.851 13.852z" transform="translate(1488.023 214.895) translate(29.295) translate(0 49.281) translate(0 .12)"/>
                            <path fill="#BEDBDE" d="M69.628.116c-4.599 0-8.31 3.712-8.31 8.311s3.711 8.311 8.31 8.311h8.991V.116h-8.99zM38.785 61.064H0V41.672c0-10.71 8.683-19.393 19.393-19.393s19.392 8.683 19.392 19.393v19.392z" transform="translate(1488.023 214.895) translate(29.295) translate(0 49.281) translate(0 .12)"/>
                            <path fill="#CDE3E6" d="M75.17 38.901c-10.694 0-19.393 8.7-19.393 19.393v2.77h38.785v-2.77c0-10.693-8.7-19.393-19.393-19.393z" transform="translate(1488.023 214.895) translate(29.295) translate(0 49.281) translate(0 .12)"/>
                            <path fill="#BEDBDE" d="M94.562 58.294v2.77H75.169V38.901c10.694 0 19.393 8.7 19.393 19.393z" transform="translate(1488.023 214.895) translate(29.295) translate(0 49.281) translate(0 .12)"/>
                        </g>
                        <g>
                            <path fill="#FFF" fill-rule="nonzero" d="M9.204 18.409C4.13 18.409 0 14.279 0 9.204S4.13 0 9.204 0c5.076 0 9.205 4.13 9.205 9.204 0 5.076-4.13 9.205-9.205 9.205z" transform="translate(1488.023 214.895) translate(29.295) translate(0 49.281) translate(9.266 35.07)"/>
                            <path fill="#F68B1E" d="M17.082 4.446c-.15-.252-.313-.497-.488-.732-.268-.353-.557-.688-.868-1.003l-.325-.326-.678-.542-.732-.515-.407-.217c-2.731-1.48-6.026-1.48-8.757 0l-.407.217-.732.515c-.238.166-.464.347-.678.542l-.325.326c-.31.315-.6.65-.868 1.003C1.016 4.792.46 6.032.19 7.347.06 7.962-.005 8.59 0 9.218c0 .919.136 1.833.407 2.711.134.427.297.843.488 1.248.128.27.273.533.434.786l.244.38c.156.245.328.48.515.704.381.45.798.867 1.247 1.248.233.196.477.377.732.542l.76.46c2.731 1.481 6.026 1.481 8.757 0l.407-.216c.38-.244.732-.515 1.085-.786l.65-.597.597-.65c.187-.224.359-.46.515-.705l.244-.38c1.769-2.936 1.769-6.609 0-9.544v.027zM15.998 6.94l-3.39 3.335.678 4.664-4.094-2.196-4.04 2.196.786-4.664L2.441 6.94l4.69-.677L9.22 2.006l2.115 4.257 4.664.677z" transform="translate(1488.023 214.895) translate(29.295) translate(0 49.281) translate(9.266 35.07)"/>
                        </g>
                        <g>
                            <path fill="#FFC426" d="M8.425.029C3.835.029.11 3.75.11 8.34v2.767h8.314V.028z" transform="translate(1488.023 214.895) translate(29.295) translate(0 49.281) rotate(90 43.117 43.144)"/>
                            <path fill="#FFD051" d="M16.738 8.341c0-4.59-3.723-8.312-8.313-8.312v2.077c3.443.004 6.23 2.792 6.235 6.235-.004-3.443-2.792-6.23-6.235-6.235v9.002h8.313V8.341z" transform="translate(1488.023 214.895) translate(29.295) translate(0 49.281) rotate(90 43.117 43.144)"/>
                        </g>
                    </g>
                    <path fill="#B28E70" d="M49.604 61.068l-15.59-5.93c-.655-.248-1.24-.648-1.707-1.169L20.263 40.576c-1.623-1.805-1.475-4.584.33-6.207 1.804-1.623 4.583-1.475 6.206.33L38.131 47.3l14.597 5.55c2.269.864 3.408 3.402 2.546 5.671-.857 2.253-3.385 3.414-5.67 2.546z" transform="translate(1488.023 214.895) translate(29.295)"/>
                    <path fill="#FFC426" d="M32.665 41.223l-5.866-6.524c-1.623-1.805-4.402-1.953-6.207-.33-1.805 1.624-1.952 4.402-.33 6.207l6.39 7.106 6.013-6.46z" transform="translate(1488.023 214.895) translate(29.295)"/>
                </g>
                <path fill="#FFF" d="M102.922 121.863c-2.344-3.268-6.895-5.918-10.164-5.918-2.31 0-3.36 1.324-2.95 3.254-2.36-1.93-5.309-3.254-7.619-3.254-2.404 0-3.443 1.434-2.893 3.492-2.393-2.04-5.467-3.46-7.856-3.46-3.26 0-4.007 2.642-1.668 5.902l.008.012h33.162l-.02-.028M47.74 122.13c-3.22-4.488-9.468-8.126-13.956-8.126-3.171 0-4.612 1.818-4.05 4.467-3.24-2.649-7.29-4.467-10.46-4.467-3.301 0-4.727 1.969-3.972 4.795-3.286-2.803-7.507-4.752-10.787-4.752-4.476 0-5.502 3.628-2.29 8.104l.012.016h45.528l-.026-.037" transform="translate(1488.023 214.895)"/>
                <path fill="#3F3F3F" d="M62.472 77.53H37.236c-4.645 0-8.412-3.72-8.412-8.31v-2.77h33.648c3.098 0 5.608 2.48 5.608 5.54s-2.51 5.54-5.608 5.54z" transform="translate(1488.023 214.895)"/>
                <path fill="#FEF3E8" d="M36.53 47.534V74.99c0 1.412-1.145 2.557-2.557 2.557H4.57c-1.412 0-2.557-1.145-2.557-2.557V47.534c0-1.412 1.145-2.557 2.557-2.557h29.404c1.412 0 2.557 1.145 2.557 2.557z" transform="translate(1488.023 214.895)"/>
                <path fill="#FDE8D2" d="M36.53 47.534v30.014H19.27v-32.57h14.702c1.412 0 2.557 1.144 2.557 2.556z" transform="translate(1488.023 214.895)"/>
            </g>
        </g>
    </g>
</svg>
